<svg version="1.1" xmlns="http://www.w3.org/2000/svg" width="1254" height="1254">
<rect width="1254" height="1254" fill="#ffffff"/>
<path d="M0 0 C-1.44194606 3.68272291 -3.06280581 7.09084429 -4.984375 10.55078125 C-5.5825 11.62908203 -6.180625 12.70738281 -6.796875 13.81835938 C-7.44769288 14.98319798 -8.09874061 16.14790819 -8.75 17.3125 C-9.08257813 17.90957764 -9.41515625 18.50665527 -9.7578125 19.12182617 C-14.96098623 28.46196986 -20.30332609 37.71387357 -25.72314453 46.93017578 C-30.80129542 55.59256804 -35.67948149 64.35939432 -40.53735352 73.14672852 C-45.72917097 82.5335183 -51.0244858 91.85647922 -56.36767578 101.15771484 C-59.54220846 106.68537106 -62.70968568 112.21706174 -65.875 117.75 C-66.21455719 118.34332123 -66.55411438 118.93664246 -66.90396118 119.54794312 C-71.69420874 127.92117935 -76.42927739 136.323275 -81.125 144.75 C-86.19620052 153.84936277 -91.40297219 162.85966744 -96.68017578 171.84082031 C-101.7267187 180.46111947 -106.56881189 189.18767016 -111.39428711 197.93310547 C-115.49727206 205.34916185 -119.7025647 212.69508775 -124 220 C-129.6656365 229.63318477 -135.13046915 239.36629386 -140.53735352 249.14672852 C-145.72917097 258.5335183 -151.0244858 267.85647922 -156.36767578 277.15771484 C-159.54220846 282.68537106 -162.70968568 288.21706174 -165.875 293.75 C-166.21455719 294.34332123 -166.55411438 294.93664246 -166.90396118 295.54794312 C-171.69420874 303.92117935 -176.42927739 312.323275 -181.125 320.75 C-186.19620052 329.84936277 -191.40297219 338.85966744 -196.68017578 347.84082031 C-201.7267187 356.46111947 -206.56881189 365.18767016 -211.39428711 373.93310547 C-215.49727206 381.34916185 -219.7025647 388.69508775 -224 396 C-229.6656365 405.63318477 -235.13046915 415.36629386 -240.53735352 425.14672852 C-245.7228753 434.52213574 -251.01262633 443.83305799 -256.35009766 453.12255859 C-258.22199394 456.38715901 -260.08624928 459.65608255 -261.94921875 462.92578125 C-272.03021044 480.61628898 -282.1745436 498.21719176 -293.02246094 515.45214844 C-296.54244668 521.04752204 -300.02348925 526.66303058 -303.44921875 532.31640625 C-304.18530494 533.52747326 -304.92146948 534.73849265 -305.65771484 535.94946289 C-306.73225548 537.71720583 -307.80424884 539.48624591 -308.86846924 541.26022339 C-309.84998418 542.89605251 -310.84078068 544.5263019 -311.83203125 546.15625 C-312.39639893 547.09275391 -312.9607666 548.02925781 -313.54223633 548.99414062 C-314.02329834 549.65607422 -314.50436035 550.31800781 -315 551 C-315.66 551 -316.32 551 -317 551 C-318.62518029 548.15593449 -320.25035209 545.31186414 -321.87548828 542.46777344 C-323.31117641 539.95529829 -324.74707343 537.44294266 -326.18310547 534.93066406 C-329.83637162 528.53902207 -333.48761181 522.14624562 -337.1328125 515.75 C-343.372757 504.80441172 -349.635706 493.87399579 -356 483 C-361.00736075 474.44445249 -365.96154808 465.85975845 -370.875 457.25 C-371.20788025 456.6667395 -371.5407605 456.083479 -371.88372803 455.48254395 C-374.59800516 450.72563102 -377.30942831 445.96709282 -380.02075195 441.20849609 C-382.38751432 437.05491026 -384.75538194 432.90195739 -387.125 428.75 C-387.45804138 428.16641724 -387.79108276 427.58283447 -388.13421631 426.98156738 C-392.71285351 418.96221532 -397.33550365 410.96973138 -402 403 C-409.076922 390.90841215 -416.02653905 378.74545051 -422.96337891 366.57324219 C-426.32652044 360.67198324 -429.69368174 354.77301988 -433.0625 348.875 C-433.39359772 348.29530457 -433.72469543 347.71560913 -434.06582642 347.11834717 C-441.3376553 334.3893792 -448.66488261 321.69257279 -456 309 C-464.03574672 295.09506913 -472.0505128 281.17876895 -480.00997925 267.2300415 C-485.42889381 257.73444767 -490.88238875 248.25921566 -496.35327148 238.79345703 C-500.94943607 230.83561246 -505.51065947 222.85822801 -510.0625 214.875 C-514.99596734 206.22304141 -519.96819413 197.59522495 -525 189 C-530.0318069 180.40477328 -535.00389072 171.7768787 -539.9375 163.125 C-545.12442426 154.02920013 -550.32681506 144.94287737 -555.5625 135.875 C-556.17802734 134.80894531 -556.79355469 133.74289062 -557.42773438 132.64453125 C-559.28470194 129.42942477 -561.14223579 126.21464622 -563 123 C-571.0602838 109.05261056 -579.09741128 95.0929186 -587.0753479 81.09829712 C-591.70856837 72.97339456 -596.39365875 64.88067492 -601.125 56.8125 C-606.56583806 47.53412149 -611.84682786 38.17417041 -617.07128906 28.77246094 C-620.74844397 22.17378857 -624.51802205 15.64800785 -628.51293945 9.23608398 C-631 5.20354875 -631 5.20354875 -631 3 C-580.18 3 -529.36 3 -477 3 C-472.05 11.91 -467.1 20.82 -462 30 C-457.91409248 37.30401167 -453.8272049 44.60737958 -449.73388672 51.90722656 C-446.8206086 57.10370745 -443.91047173 62.30194696 -441 67.5 C-439.8333482 69.58334166 -438.66668154 71.66667499 -437.5 73.75 C-346.5 236.25 -346.5 236.25 -344.74926758 239.37646484 C-343.58522081 241.45501534 -342.4209962 243.53346624 -341.2565918 245.61181641 C-338.29835738 250.89251525 -335.34345187 256.17503115 -332.39453125 261.4609375 C-331.20072459 263.59907211 -330.00671635 265.73709419 -328.8125 267.875 C-328.23741699 268.9050415 -327.66233398 269.93508301 -327.06982422 270.99633789 C-322.87008697 278.49809014 -318.58611742 285.94774095 -314.19848633 293.34130859 C-311 298.78499736 -311 298.78499736 -311 301 C-310.34 301 -309.68 301 -309 301 C-308.73678955 300.2992334 -308.4735791 299.5984668 -308.20239258 298.87646484 C-306.9070449 295.77762499 -305.38857113 292.91502628 -303.76171875 289.9765625 C-303.4449115 289.40274841 -303.12810425 288.82893433 -302.80169678 288.23773193 C-301.76662381 286.36514684 -300.72719631 284.4950215 -299.6875 282.625 C-298.96023053 281.31208777 -298.23309998 279.99909858 -297.50610352 278.68603516 C-292.67194877 269.96477296 -287.78482228 261.27409728 -282.86376953 252.6015625 C-278.72269316 245.29841768 -274.6343857 237.96692313 -270.5625 230.625 C-263.98398 218.7634224 -257.36781562 206.92343593 -250.73388672 195.09277344 C-247.82060859 189.89629254 -244.91048386 184.69804626 -242 179.5 C-240.83985365 177.42837987 -239.67969738 175.3567653 -238.51953125 173.28515625 C-236.12067677 169.00153541 -233.72229917 164.71764798 -231.32421875 160.43359375 C-230.71513672 159.345625 -230.10605469 158.25765625 -229.47851562 157.13671875 C-228.33775929 155.09903185 -227.19712142 153.06127863 -226.05664062 151.0234375 C-222.80585421 145.21705106 -219.54743775 139.41499909 -216.28442383 133.61547852 C-215.87072792 132.88011116 -215.45703201 132.1447438 -215.03079987 131.38709259 C-214.02057337 129.59137248 -213.01029233 127.79568307 -212 126 C-213.19079666 126.00222061 -214.38159332 126.00444122 -215.60847473 126.00672913 C-226.86289788 126.02705266 -238.11731727 126.0420164 -249.37175465 126.05181217 C-255.15694255 126.05701765 -260.94211558 126.06407267 -266.72729492 126.07543945 C-272.31642998 126.08635159 -277.90555077 126.09229441 -283.49469566 126.09487724 C-285.62078768 126.09671654 -287.74687896 126.10030808 -289.87296486 126.10573006 C-292.86430132 126.11305115 -295.85557977 126.11398631 -298.84692383 126.11352539 C-299.71439743 126.11712067 -300.58187103 126.12071594 -301.47563171 126.12442017 C-318.74663646 126.09586008 -318.74663646 126.09586008 -322.38769531 122.91235352 C-322.86303711 121.99381592 -323.33837891 121.07527832 -323.828125 120.12890625 C-324.39208984 119.09314453 -324.95605469 118.05738281 -325.53710938 116.99023438 C-326.10236328 115.85908203 -326.66761719 114.72792969 -327.25 113.5625 C-327.8791878 112.37987671 -328.51273994 111.19956618 -329.15039062 110.02148438 C-330.47084365 107.5738667 -331.77202565 105.11739927 -333.06054688 102.65283203 C-336.03410371 97.00348425 -339.280759 91.51166062 -342.5 86 C-343.75255749 83.83145381 -345.0038565 81.66218024 -346.25390625 79.4921875 C-348.73930902 75.18398349 -351.22641977 70.87677211 -353.71484375 66.5703125 C-354.95583757 64.42193761 -356.19672291 62.27350006 -357.4375 60.125 C-358.35523193 58.53594849 -358.35523193 58.53594849 -359.29150391 56.91479492 C-362.60343171 51.17409122 -365.90239226 45.426272 -369.18359375 39.66796875 C-369.531978 39.05670135 -369.88036224 38.44543396 -370.23930359 37.81564331 C-371.62600369 35.38233573 -373.01268244 32.94901697 -374.39816284 30.51501465 C-379.00393755 22.42670247 -383.69520436 14.40662878 -388.59375 6.4921875 C-390 4 -390 4 -390 2 C-371.46766848 0.72715627 -352.90992728 0.78021387 -334.34374571 0.69668961 C-330.52748218 0.67884554 -326.71123876 0.65780448 -322.89499164 0.63677824 C-312.56558909 0.5798941 -302.2361642 0.52954402 -291.90671325 0.48234785 C-284.33870917 0.44773082 -276.77071741 0.41105514 -269.20272827 0.37332153 C-179.46846921 -0.07164163 -89.73511042 -0.1145424 0 0 Z " fill="#000000" transform="translate(945,369)"/>
</svg>
